<?xml version="1.0" encoding="UTF-8" standalone="no"?>
<svg width="29px" height="40px" viewBox="0 0 29 40" version="1.1" xmlns="http://www.w3.org/2000/svg" xmlns:xlink="http://www.w3.org/1999/xlink">
    <defs>
        <radialGradient cx="27.270177%" cy="71.6330625%" fx="27.270177%" fy="71.6330625%" r="50.5002631%" id="radialGradient-1">
            <stop stop-color="#7A767D" offset="0%"></stop>
            <stop stop-color="#7A767D" stop-opacity="0" offset="100%"></stop>
        </radialGradient>
    </defs>
            <path d="M13.651458,23.5237204 C13.6768551,20.6972861 13.687014,16.1875441 16.2864141,13.0905048 C19.4382026,9.3349587 24.9652613,7.96135487 29.2313505,9.82883873 C32.7228262,11.3547222 32.7488583,26.5826898 30.2237449,30.0984982 C28.1665743,32.9588867 24.0268359,36.848192 17.8807213,38.1446271 C13.7670151,39.0089171 13.9778116,40.3670872 13.0197034,35.5003111 C12.870495,33.8849118 13.6165368,27.1660856 13.6520929,23.5309228 L13.651458,23.5237204 Z" id="shadow" fill="url(#radialGradient-1)" opacity="0.55"></path>
            <path d="M0.817698095,9.966 C2.95469809,3.436 8.92469809,0.085 13.9596981,0 C19.7196981,0.038 25.3296981,2.459 28.2196981,9.94 C29.8196981,14.78 29.5696981,21.91 22.5196981,27.93 C19.4796981,30.98 17.4346981,33.85 16.4796981,35.863 C14.5496981,40.523 14.3996981,40.543 12.5496981,35.8659 C11.6346981,33.906 9.57969809,30.906 6.55069809,27.836 C-0.395301905,22.176 -0.865301905,14.926 0.814698095,9.966 L0.817698095,9.966 Z" id="pin" fill="#0091d0"></path>
            <path d="M14.5,5 C17.0195567,5 19.4359188,6.00088998 21.2175144,7.78248558 C22.99911,9.56408117 24,11.9804433 24,14.5 C24,19.7467051 19.7467051,24 14.5,24 C11.9804433,24 9.56408117,22.99911 7.78248558,21.2175144 C6.00088998,19.4359188 5,17.0195567 5,14.5 C5,11.9804433 6.00088998,9.56408117 7.78248558,7.78248558 C9.56408117,6.00088998 11.9804433,5 14.5,5 L14.5,5 Z M13.55,18.775 L20.2,12.125 L18.8605,10.7855 L13.55,16.0865 L10.6145,13.1605 L9.275,14.5 L13.55,18.775 L13.55,18.775 Z" id="Shape" fill="#ffffff"></path>
</svg>